<svg version="1.2" xmlns="http://www.w3.org/2000/svg" viewBox="0 0 123 101" width="510" height="510">
	<title>rest-api-icon-svg</title>
	<style>
		.s0 { fill: #177faf } 
	</style>
	<g id="Layer">
		<path id="Layer" fill-rule="evenodd" class="s0" d="m102.8 7.1l2.6 3.4c0.7 0.9 0.5 2.2-0.4 2.9l-2.8 2.1q0.8 2 1 4.2l3.1 0.4c1.1 0.2 1.9 1.2 1.8 2.3l-0.6 4.3c-0.2 1.1-1.2 1.9-2.3 1.7l-3.4-0.5q-1 2-2.3 3.7l1.9 2.5c0.7 0.9 0.5 2.2-0.4 2.9l-3.4 2.6c-0.9 0.6-2.2 0.5-2.9-0.4l-2.1-2.8q-2 0.8-4.2 1l-0.4 3.1c-0.2 1.1-1.2 1.9-2.4 1.8l-4.2-0.6c-1.1-0.2-1.9-1.2-1.8-2.3l0.5-3.5c-1.3-0.6-2.5-1.3-3.6-2.3l-2.5 2c-0.9 0.6-2.2 0.5-2.9-0.4l-2.6-3.4c-0.7-0.9-0.5-2.2 0.4-2.9l2.7-2.1q-0.7-2-0.9-4.2l-3.1-0.4c-1.2-0.2-2-1.2-1.8-2.3l0.6-4.3c0.1-1.1 1.2-1.9 2.3-1.7l3.4 0.4c0.6-1.3 1.4-2.5 2.3-3.6l-1.9-2.5c-0.7-0.9-0.5-2.2 0.4-2.9l3.4-2.6c0.9-0.7 2.2-0.5 2.9 0.4l2.1 2.8q2-0.8 4.2-1l0.4-3.1c0.2-1.1 1.2-1.9 2.3-1.8l4.3 0.6c1.1 0.1 1.9 1.2 1.7 2.3l-0.5 3.4q2 1 3.7 2.3l2.5-1.9c0.9-0.7 2.2-0.5 2.9 0.4zm-42.3 4.4q-2.7-0.3-5.5 0c-5.6 0.6-11.1 2.6-15.6 6.1-5.2 4.1-9.2 10.1-10.7 18.2l-0.5 2.5-2.5 0.4q-3.7 0.7-6.6 1.8-2.8 1.1-4.9 2.6-1.8 1.3-3 2.8c-2.7 3.2-3.9 7.1-3.9 11.1 0.1 4.1 1.4 8.2 3.8 11.6q1.4 1.9 3.2 3.4 1.8 1.5 4.1 2.5 1.3 0.5 2.8 0.9v7.4q-3-0.5-5.6-1.6-3.4-1.4-6-3.6-2.6-2.1-4.4-4.7c-3.4-4.6-5.2-10.2-5.2-15.8 0-5.7 1.7-11.3 5.5-15.9q1.9-2.2 4.4-4 2.9-2.1 6.6-3.6 2.6-1 5.5-1.7c2.2-8.7 6.9-15.4 12.9-20.1 5.7-4.4 12.5-6.9 19.4-7.6 3.7-0.3 7.4-0.2 11.1 0.5q-0.2 0.5-0.2 1v0.1q-0.1 0.8-0.1 1.7-1.2 0.4-2.1 1.2h-0.1c-0.9 0.7-1.8 1.7-2.4 2.8zm-12.8 84.3h-9.6l-1.3 4.5h-8.6l10.2-27.2h9.2l10.2 27.2h-8.8zm-1.8-5.9l-2.9-9.7-3 9.7zm27.9-16.8q4.5 0 6.8 2.2 2.3 2.2 2.3 6.2 0 4.1-2.5 6.4-2.5 2.4-7.6 2.4h-4.6v10h-8.4v-27.2zm-3.5 11.6q2.4 0 3.4-0.8 1-0.9 1-2.2 0-1.2-0.8-2.1-0.9-0.9-3.3-0.9h-2.4v6zm24.4-11.6v27.2h-8.4v-27.2zm-65-22.5h8.5q2.4 0 3.6 0.4 1.3 0.4 2 1.5 0.8 1.1 0.8 2.7 0 1.4-0.6 2.4-0.6 1-1.6 1.6-0.7 0.4-1.8 0.6 0.9 0.3 1.3 0.6 0.3 0.3 0.8 0.9 0.5 0.7 0.7 1l2.5 4.8h-5.8l-2.7-5q-0.5-1-0.9-1.3-0.5-0.4-1.2-0.4h-0.5v6.7h-5.1zm17.2 0h13.6v3.5h-8.5v2.7h7.9v3.3h-7.9v3.3h8.8v3.7h-13.9zm15.1 11l4.8-0.3q0.2 1.2 0.7 1.8 0.8 1 2.2 1 1.1 0 1.7-0.5 0.6-0.5 0.6-1.2 0-0.6-0.6-1.1-0.5-0.5-2.6-1-3.3-0.7-4.8-2-1.4-1.2-1.4-3.2 0-1.2 0.7-2.4 0.8-1.1 2.3-1.7 1.5-0.7 4-0.7 3.2 0 4.8 1.2 1.7 1.2 2 3.8l-4.8 0.2q-0.2-1.1-0.8-1.6-0.6-0.5-1.7-0.5-0.8 0-1.3 0.4-0.4 0.4-0.5 0.9 0.1 0.4 0.4 0.7 0.4 0.3 1.7 0.6 3.4 0.7 4.8 1.5 1.5 0.7 2.1 1.8 0.7 1.1 0.7 2.5 0 1.5-0.9 2.9-0.9 1.3-2.5 2-1.5 0.7-3.9 0.7-4.2 0-5.9-1.6-1.6-1.7-1.8-4.2zm31.2-11v4.1h-5.2v12.4h-5.1v-12.4h-5.2v-4.1zm-58.4 6.7h2.1q0.4 0 1.4-0.2 0.5-0.1 0.8-0.6 0.4-0.4 0.3-0.9 0-0.8-0.5-1.2-0.5-0.5-1.9-0.5h-2.2zm78.7-26.6q0.8 0.7 1.6 1.6 1.6 1.7 3 3.9c3.2 4.9 4.8 11.5 4.8 17.9-0.1 6.3-1.8 12.6-5.3 17.2-2.2 3-5.2 5.5-8.6 7.4q-3.6 2-8.1 3.4v-7.8q2.4-0.8 4.4-2c2.7-1.4 4.8-3.2 6.4-5.4 2.5-3.3 3.8-8 3.8-12.8 0.1-5.1-1.2-10.2-3.6-13.9q-1-1.6-2.2-2.9-0.5-0.5-1-0.9 0.1-0.8 0.1-1.6 1.1-0.4 2.1-1.2c1.1-0.8 1.9-1.8 2.5-2.9zm-34.8-10.7c-0.6 4.6 2.6 8.9 7.2 9.5 4.6 0.6 8.9-2.6 9.5-7.2 0.6-4.6-2.6-8.9-7.2-9.5-4.6-0.6-8.9 2.6-9.5 7.2z"/>
	</g>
</svg>